<?xml version="1.0" encoding="utf-8"?>
<!-- Generator: Adobe Illustrator 19.1.0, SVG Export Plug-In . SVG Version: 6.00 Build 0)  -->
<svg version="1.1" id="Layer_1" xmlns="http://www.w3.org/2000/svg" xmlns:xlink="http://www.w3.org/1999/xlink" x="0px" y="0px"
	 viewBox="-519 373 260.5 56" style="enable-background:new -519 373 260.5 56;" xml:space="preserve">
<style type="text/css">
	.st0{fill:#189588;}
	.st1{fill:#FFA000;}
	.st2{fill:#FFC107;}
	.st3{fill:#FFFFFF;}
</style>
<g>
	<path class="st0" d="M-447.7,394.6h3.1l8.5,22.1h-4.1l-2-5.8h-7.9l-2.1,5.8h-3.8L-447.7,394.6z M-443.3,408.1
		c-0.7-2-1.3-3.7-1.8-5.3c-0.5-1.6-0.9-2.9-1.1-3.8c-0.3,1-0.7,2.3-1.2,3.8c-0.5,1.6-1.1,3.3-1.8,5.2L-443.3,408.1L-443.3,408.1z"/>
	<path class="st0" d="M-413.8,400.5l0.1,0.3c0,0.2,0.1,0.4,0.1,0.7c0,0.3,0.1,0.7,0.1,1.1s0,0.8,0,1.2c0,2.4-0.1,4.5-0.4,6.1
		c-0.3,1.7-0.7,3-1.3,4.1c-0.6,1-1.4,1.8-2.5,2.2c-1,0.5-2.3,0.7-3.8,0.7c-2.1,0-3.6-0.9-4.3-2.6c-0.4,0.9-0.9,1.5-1.6,2
		c-0.7,0.4-1.7,0.6-3,0.6c-1.7,0-2.9-0.5-3.6-1.5s-1.1-2.3-1.1-4.1v-10.9h3.7V411c0,0.9,0.2,1.7,0.5,2.3c0.3,0.6,0.9,0.9,1.7,0.9
		c1,0,1.8-0.5,2.3-1.5s0.8-2.6,0.8-4.9v-7.5h3.7c0,1.6,0,3.1,0,4.5c0,0.6,0,1.2,0,1.8c0,0.6,0,1.2,0,1.7s0,1,0,1.5
		c0,0.4,0,0.8,0,1.1c0,0.9,0.2,1.7,0.5,2.3c0.3,0.6,0.9,0.9,1.7,0.9c0.8,0,1.4-0.3,1.8-0.9s0.7-1.4,0.9-2.3c0.2-0.9,0.3-2,0.4-3.2
		c0-1.2,0.1-2.4,0.1-3.7c0-0.5,0-1,0-1.4s-0.1-0.8-0.1-1.2c-0.1-0.3-0.1-0.6-0.1-0.8l-0.1-0.3h3.5V400.5z"/>
	<path class="st0" d="M-411.1,405.1c0.4-1.1,1-2,1.7-2.8c0.7-0.7,1.5-1.3,2.5-1.7c1-0.4,2-0.6,3.1-0.6c1,0,1.8,0.1,2.5,0.4
		c0.7,0.2,1.2,0.6,1.7,1c0.4,0.4,0.8,0.9,1,1.5s0.3,1.2,0.3,1.8c0,0.8-0.2,1.5-0.7,2.2c-0.4,0.7-1.1,1.3-1.9,1.9
		c-0.8,0.5-1.8,1-2.9,1.3c-1.2,0.3-2.4,0.5-3.9,0.5c0.1,0.5,0.2,1,0.3,1.4c0.1,0.4,0.3,0.8,0.6,1.2c0.3,0.3,0.6,0.6,1.1,0.8
		c0.4,0.2,1,0.3,1.6,0.3c0.5,0,1-0.1,1.5-0.2s1-0.2,1.5-0.4c0.5-0.2,1.1-0.4,1.6-0.6l1,2.3c-0.6,0.3-1.2,0.5-1.8,0.7
		c-0.6,0.2-1.2,0.4-2,0.5c-0.7,0.2-1.5,0.2-2.3,0.2c-1.3,0-2.3-0.2-3.2-0.6c-0.9-0.4-1.6-0.9-2.2-1.6s-1-1.5-1.2-2.5
		c-0.3-1-0.4-2.1-0.4-3.3C-411.7,407.5-411.5,406.2-411.1,405.1z M-405.9,403.1c-0.5,0.3-0.8,0.8-1.1,1.3c-0.3,0.5-0.5,1.1-0.6,1.8
		c-0.1,0.7-0.2,1.3-0.2,2c1,0,1.9-0.2,2.7-0.4c0.7-0.2,1.3-0.5,1.8-0.8s0.8-0.7,1-1.1s0.3-0.8,0.3-1.2c0-0.6-0.2-1.1-0.6-1.5
		s-0.9-0.6-1.5-0.6C-404.8,402.6-405.4,402.8-405.9,403.1z"/>
	<path class="st0" d="M-391.3,400.1c0.6,0,1.2,0.1,1.9,0.2c0.6,0.1,1.2,0.3,1.6,0.5c0.6,0.2,1.1,0.4,1.6,0.6l-1.1,2.5
		c-0.4-0.2-0.9-0.4-1.3-0.5s-0.8-0.3-1.2-0.4c-0.4-0.1-0.9-0.2-1.3-0.2c-0.5,0-0.9,0.1-1.3,0.4c-0.4,0.2-0.5,0.6-0.5,1.1
		c0,1.2,0.9,2.2,2.7,2.9c0.7,0.3,1.3,0.5,1.8,0.8s1,0.6,1.4,1s0.7,0.8,0.9,1.4c0.2,0.5,0.3,1.1,0.3,1.8c0,0.6-0.1,1.2-0.4,1.8
		c-0.3,0.6-0.6,1.1-1.1,1.6s-1.1,0.8-1.8,1.1c-0.7,0.3-1.5,0.4-2.4,0.4c-0.7,0-1.4-0.1-2.1-0.2c-0.7-0.2-1.3-0.3-1.9-0.5
		s-1-0.4-1.3-0.6l-0.5-0.2l1.2-2.7l0.4,0.2c0.3,0.2,0.6,0.4,1.1,0.6c0.4,0.2,0.9,0.4,1.4,0.5c0.5,0.2,1,0.2,1.4,0.2
		c0.8,0,1.3-0.2,1.7-0.5c0.4-0.3,0.6-0.7,0.6-1.2c0-0.6-0.2-1.1-0.6-1.5c-0.4-0.5-1-0.9-1.8-1.2c-1.7-0.6-2.9-1.3-3.6-2.1
		c-0.7-0.8-1.1-1.8-1.1-3.1c0-0.6,0.1-1.2,0.4-1.7c0.3-0.6,0.7-1,1.2-1.5c0.5-0.4,1.1-0.8,1.7-1
		C-392.8,400.2-392.1,400.1-391.3,400.1z"/>
	<path class="st0" d="M-371.6,402.3c1.1,1.5,1.7,3.5,1.7,6.1c0,1.2-0.2,2.4-0.5,3.4c-0.3,1.1-0.8,2-1.4,2.7
		c-0.6,0.8-1.4,1.4-2.3,1.8s-2,0.7-3.3,0.7c-1.2,0-2.3-0.2-3.2-0.6c-0.9-0.4-1.6-0.9-2.2-1.6s-1-1.6-1.3-2.6s-0.4-2.2-0.4-3.5
		c0-1.2,0.2-2.4,0.5-3.4c0.3-1.1,0.8-2,1.4-2.7c0.6-0.8,1.4-1.4,2.3-1.8s2-0.7,3.3-0.7C-374.6,400.1-372.7,400.8-371.6,402.3z
		 M-378.9,403.2c-0.4,0.3-0.7,0.7-0.9,1.2c-0.2,0.5-0.4,1.1-0.5,1.8c-0.1,0.7-0.1,1.4-0.1,2.2c0,0.8,0,1.6,0.1,2.3
		c0.1,0.7,0.3,1.3,0.5,1.9c0.3,0.5,0.6,1,1.1,1.3c0.4,0.3,1,0.5,1.7,0.5c0.6,0,1.1-0.1,1.5-0.4s0.7-0.7,0.9-1.2
		c0.2-0.5,0.4-1.1,0.5-1.8c0.1-0.7,0.1-1.4,0.1-2.2c0-0.8,0-1.6-0.1-2.3c-0.1-0.7-0.3-1.3-0.5-1.9c-0.3-0.5-0.6-1-1.1-1.3
		c-0.4-0.3-1-0.5-1.7-0.5C-378,402.8-378.5,403-378.9,403.2z"/>
	<path class="st0" d="M-348.9,416.7v-10.6c0-0.9-0.1-1.6-0.4-2.2c-0.3-0.5-0.8-0.8-1.5-0.8c-0.4,0-0.8,0.1-1.3,0.3
		c-0.4,0.2-0.8,0.6-1.2,1c-0.3,0.4-0.6,1-0.8,1.6c-0.2,0.6-0.3,1.3-0.3,2v8.7h-3.7v-10.6c0-0.9-0.1-1.6-0.4-2.2
		c-0.3-0.5-0.8-0.8-1.5-0.8c-0.4,0-0.9,0.1-1.3,0.4s-0.8,0.6-1.1,1.1c-0.3,0.5-0.6,1.1-0.8,1.7c-0.2,0.7-0.3,1.4-0.3,2.3v8.1h-3.7
		v-8.2c0-1.3-0.1-2.4-0.3-3.3c-0.2-0.9-0.4-1.6-0.6-2.1c-0.2-0.6-0.5-1.1-0.8-1.5l2.9-1.2c0.2,0.2,0.4,0.5,0.7,0.9
		c0.2,0.3,0.3,0.7,0.5,1.1s0.3,1,0.4,1.5c0.5-1.3,1.3-2.2,2.3-2.8c1-0.6,2-0.9,3.1-0.9s2,0.3,2.6,0.8c0.6,0.6,1.1,1.3,1.4,2.2
		c0.6-1.1,1.3-1.9,2.3-2.3c0.9-0.5,1.9-0.7,2.9-0.7c0.8,0,1.6,0.1,2.1,0.4c0.6,0.3,1,0.7,1.4,1.1s0.6,1.1,0.7,1.8
		c0.2,0.7,0.2,1.4,0.2,2.3v10.9L-348.9,416.7L-348.9,416.7z"/>
	<path class="st0" d="M-342.3,405.1c0.4-1.1,1-2,1.7-2.8c0.7-0.7,1.5-1.3,2.5-1.7c1-0.4,2-0.6,3.1-0.6c1,0,1.8,0.1,2.5,0.4
		c0.7,0.2,1.2,0.6,1.7,1c0.4,0.4,0.8,0.9,1,1.5s0.3,1.2,0.3,1.8c0,0.8-0.2,1.5-0.7,2.2c-0.4,0.7-1.1,1.3-1.9,1.9
		c-0.8,0.5-1.8,1-2.9,1.3c-1.2,0.3-2.4,0.5-3.9,0.5c0.1,0.5,0.2,1,0.3,1.4c0.1,0.4,0.3,0.8,0.6,1.2c0.3,0.3,0.6,0.6,1.1,0.8
		c0.4,0.2,1,0.3,1.6,0.3c0.5,0,1-0.1,1.5-0.2s1-0.2,1.5-0.4c0.5-0.2,1.1-0.4,1.6-0.6l1,2.3c-0.6,0.3-1.2,0.5-1.8,0.7
		c-0.6,0.2-1.2,0.4-2,0.5c-0.7,0.2-1.5,0.2-2.3,0.2c-1.3,0-2.3-0.2-3.2-0.6c-0.9-0.4-1.6-0.9-2.2-1.6s-1-1.5-1.2-2.5
		c-0.3-1-0.4-2.1-0.4-3.3C-342.9,407.5-342.7,406.2-342.3,405.1z M-337.1,403.1c-0.5,0.3-0.8,0.8-1.1,1.3c-0.3,0.5-0.5,1.1-0.6,1.8
		c-0.1,0.7-0.2,1.3-0.2,2c1,0,1.9-0.2,2.7-0.4c0.7-0.2,1.3-0.5,1.8-0.8s0.8-0.7,1-1.1s0.3-0.8,0.3-1.2c0-0.6-0.2-1.1-0.6-1.5
		s-0.9-0.6-1.5-0.6C-336.1,402.6-336.7,402.8-337.1,403.1z"/>
	<path class="st1" d="M-315.7,394.6l-0.5,2.9h-5.5v19.1h-3.8v-19.1h-5.6v-2.9H-315.7z"/>
	<path class="st1" d="M-303.6,408.8c0,1.3,0.1,2.4,0.2,3.3c0.2,0.9,0.3,1.6,0.5,2.1c0.2,0.7,0.5,1.2,0.8,1.5l-2.9,1.2
		c-0.3-0.3-0.5-0.6-0.8-1c-0.2-0.3-0.4-0.8-0.6-1.3s-0.3-1.1-0.3-1.7c-0.4,1.3-1,2.3-1.8,2.9c-0.8,0.7-1.9,1-3.3,1
		c-1,0-1.9-0.2-2.7-0.6c-0.7-0.4-1.4-0.9-1.9-1.6s-0.9-1.6-1.1-2.6s-0.4-2.1-0.4-3.3c0-1.2,0.2-2.4,0.6-3.4c0.4-1.1,0.9-2,1.6-2.7
		c0.7-0.8,1.5-1.4,2.5-1.8s2-0.7,3.2-0.7c0.7,0,1.3,0,2,0.1s1.4,0.2,2,0.3c0.6,0.1,1.1,0.2,1.5,0.3c0.4,0.1,0.7,0.2,0.7,0.2v7.8
		H-303.6z M-309.5,413.7c0.5-0.4,0.9-0.9,1.2-1.4c0.3-0.6,0.6-1.3,0.8-2.1c0.2-0.8,0.3-1.6,0.3-2.4v-4.7c-0.2-0.1-0.5-0.1-1-0.2
		c-0.4-0.1-0.8-0.1-1.2-0.1c-0.8,0-1.5,0.1-2,0.4s-1,0.7-1.3,1.2s-0.6,1.1-0.7,1.8c-0.1,0.7-0.2,1.5-0.2,2.3s0,1.5,0.1,2.2
		c0,0.7,0.2,1.3,0.3,1.9c0.2,0.5,0.5,1,0.8,1.3s0.8,0.5,1.4,0.5C-310.5,414.3-310,414.1-309.5,413.7z"/>
	<path class="st1" d="M-300,393.7l3.7-0.7v9.9c0.4-0.9,0.9-1.6,1.6-2.1s1.6-0.7,2.7-0.7c1,0,1.9,0.2,2.7,0.6
		c0.7,0.4,1.4,0.9,1.9,1.6s0.9,1.6,1.1,2.6s0.4,2.1,0.4,3.3c0,1.2-0.2,2.4-0.6,3.4c-0.4,1.1-0.9,2-1.6,2.7c-0.7,0.8-1.5,1.4-2.5,1.8
		s-2,0.7-3.2,0.7c-0.7,0-1.3,0-2.1-0.1c-0.7-0.1-1.4-0.2-2.1-0.3c-0.7-0.1-1.4-0.3-2.1-0.5v-22.2H-300z M-294.1,403.4
		c-0.5,0.4-0.9,0.9-1.2,1.5c-0.3,0.6-0.6,1.3-0.8,2.1c-0.2,0.8-0.3,1.5-0.3,2.3v4.7c0.2,0,0.5,0.1,0.9,0.2s0.8,0.1,1.2,0.1
		c0.8,0,1.5-0.1,2-0.4s1-0.7,1.3-1.2s0.6-1.1,0.7-1.8c0.1-0.7,0.2-1.5,0.2-2.3s0-1.5-0.1-2.2c0-0.7-0.2-1.3-0.3-1.9
		c-0.2-0.5-0.5-1-0.8-1.3s-0.8-0.5-1.4-0.5C-293.1,402.8-293.6,403-294.1,403.4z"/>
	<path class="st1" d="M-282.8,415.8c-0.6-0.7-0.9-1.6-0.9-2.6v-19.4l3.7-0.7v19.8c0,0.5,0.1,0.8,0.3,1c0.2,0.2,0.5,0.3,0.8,0.3
		c0.2,0,0.4,0,0.6,0s0.4-0.1,0.6-0.1s0.4-0.1,0.5-0.1l0.5,2.3c-0.3,0.1-0.6,0.2-0.9,0.3c-0.3,0.1-0.7,0.2-1.1,0.2
		c-0.4,0.1-0.9,0.1-1.4,0.1C-281.3,416.8-282.2,416.5-282.8,415.8z"/>
	<path class="st1" d="M-275.7,405.1c0.4-1.1,1-2,1.7-2.8c0.7-0.7,1.5-1.3,2.5-1.7c1-0.4,2-0.6,3.1-0.6c1,0,1.8,0.1,2.5,0.4
		c0.7,0.2,1.2,0.6,1.7,1c0.4,0.4,0.8,0.9,1,1.5s0.3,1.2,0.3,1.8c0,0.8-0.2,1.5-0.7,2.2c-0.4,0.7-1.1,1.3-1.9,1.9
		c-0.8,0.5-1.8,1-2.9,1.3c-1.2,0.3-2.4,0.5-3.9,0.5c0.1,0.5,0.2,1,0.3,1.4c0.1,0.4,0.3,0.8,0.6,1.2c0.3,0.3,0.6,0.6,1.1,0.8
		c0.4,0.2,1,0.3,1.6,0.3c0.5,0,1-0.1,1.5-0.2s1-0.2,1.5-0.4c0.5-0.2,1.1-0.4,1.6-0.6l1,2.3c-0.6,0.3-1.2,0.5-1.8,0.7
		c-0.6,0.2-1.2,0.4-2,0.5c-0.7,0.2-1.5,0.2-2.3,0.2c-1.3,0-2.3-0.2-3.2-0.6c-0.9-0.4-1.6-0.9-2.2-1.6s-1-1.5-1.2-2.5
		c-0.3-1-0.4-2.1-0.4-3.3C-276.3,407.5-276.1,406.2-275.7,405.1z M-270.5,403.1c-0.5,0.3-0.8,0.8-1.1,1.3c-0.3,0.5-0.5,1.1-0.6,1.8
		c-0.1,0.7-0.2,1.3-0.2,2c1,0,1.9-0.2,2.7-0.4c0.7-0.2,1.3-0.5,1.8-0.8s0.8-0.7,1-1.1s0.3-0.8,0.3-1.2c0-0.6-0.2-1.1-0.6-1.5
		s-0.9-0.6-1.5-0.6C-269.5,402.6-270.1,402.8-270.5,403.1z"/>
</g>
<path class="st2" d="M-463.7,397.7c0-0.6,0-1-0.1-1.4c-1.2,3-5.3,7-8.9,6.7c0,0,0,0,0-0.1c0,0,0,0,0,0c4.4-7.1,6.3-13.7,6.3-18.2
	c0-5-1.4-8-1.4-8c-5.5,7.1-16.8,9.3-26.1,10c0,0,0,0,0.1-0.1c0,0,0,0-0.1,0c2.4-2.6,4-4.4,5.2-8c-5,4.1-12.1,4.2-17.7,7.6
	c-5.1,3.1-7.8,7.2-8.1,13.5c0,0.1,0,0.3,0,0.4v15.2c0,5.5,4.5,9.9,9.9,9.9h15.5c0.1,0,0.2,0,0.3,0
	C-467.3,425.9-463.7,404.7-463.7,397.7z"/>
<path class="st1" d="M-469.4,402.3c-1.1,0.6-2.2,0.9-3.3,0.8c0,0,0,0,0-0.1c0,0,0,0,0,0c0.5-0.9,1-1.7,1.5-2.5l-5.7-5.7l-2.9,3.9
	l-29,4l4.3,4.3l-4.3,4.1l4.3,4.3l-2.9,3.1l6.9,6.9h11.4c0.1,0,0.2,0,0.3,0c15.2,0.4,21.5-10.1,23.8-18.7L-469.4,402.3z"/>
<g>
	<rect x="-509" y="404.8" class="st3" width="14.9" height="6.2"/>
	<path class="st3" d="M-491.8,419.9h8.9c3.3,0,6-2.7,6-6v-0.8h-14.9V419.9z"/>
	<rect x="-491.8" y="404.8" class="st3" width="14.9" height="6.2"/>
	<path class="st3" d="M-487.6,396h-17.4c-2.1,0-3.9,1.7-3.9,3.9v2.7h32l0-7.8C-478.2,395.1-481.6,395.9-487.6,396z"/>
	<path class="st3" d="M-509,415c0,2.7,2.2,5,5,5h9.9v-6.7H-509V415z"/>
</g>
</svg>
